<?xml version="1.0" encoding="UTF-8"?>
<!DOCTYPE svg PUBLIC "-//W3C//DTD SVG 1.1//EN" "http://www.w3.org/Graphics/SVG/1.1/DTD/svg11.dtd">
<!-- Creator: CorelDRAW -->
<svg xmlns="http://www.w3.org/2000/svg" xml:space="preserve" width="25.936mm" height="24.4898mm" version="1.1" style="shape-rendering:geometricPrecision; text-rendering:geometricPrecision; image-rendering:optimizeQuality; fill-rule:evenodd; clip-rule:evenodd"
viewBox="0 0 2593.6 2448.98"
 xmlns:xlink="http://www.w3.org/1999/xlink"
 xmlns:xodm="http://www.corel.com/coreldraw/odm/2003">
 <defs>
  <style type="text/css">
   <![CDATA[
    .fil3 {fill:#00AEEE}
    .fil0 {fill:#00AFEF}
    .fil2 {fill:#8CC64B}
    .fil1 {fill:#8CC74C}
   ]]>
  </style>
 </defs>
 <g id="Capa_x0020_1">
  <metadata id="CorelCorpID_0Corel-Layer"/>
  <g id="_2547871662208">
   <path class="fil0" d="M1310.01 181.38l-1.98 213.89c9.09,-4 17.25,-15.88 23.07,-24.3 7.21,-10.44 11.66,-19.43 18.17,-30.18 6.24,-10.34 10.72,-20.8 17.01,-31.34 21.49,-36 15.97,-25.31 39.55,-55.67 3.93,-5.05 7.35,-7.42 11.11,-12.33 9.62,-12.62 39.04,-35.83 52.14,-44.55 99.75,-66.37 211.4,-83.63 326.36,-49.74 6.69,1.97 11.84,4.14 17.27,6.16 16.12,6.01 35.22,13.97 49.52,22.27 10.45,6.06 19.59,11.52 29.96,18.38 5.42,3.6 8.59,6.01 13.64,9.8 14.52,10.9 33.05,26.1 44.8,40.17 1.96,2.36 3.6,3.78 5.8,5.93 15.37,15.06 40.92,52.12 50.43,71.16 14.81,29.65 17.26,35.43 27.77,67.45 7.19,21.87 13.76,54.85 15.23,81.46 2.7,48.65 2.03,86.19 -7.73,134.47 -1.15,5.69 -2.54,13.37 -4.01,19.42 -1.47,5.99 -4.27,13.85 -4.42,20.49 -4.07,-1.95 -17.93,-3.81 -24.28,-5.01l-76.76 -11.14c-16.65,-1.44 -36.69,-4.48 -54.23,-4.38 -20.34,0.12 -38.54,-2.98 -57.55,-0.38 -9.39,1.29 -19.22,-0.44 -28.69,0.62 -30.02,3.36 -47.14,4.49 -78.28,9.62 -66.86,11.02 -139.06,37.38 -198.33,66.83l-93.37 54.6c-31.64,21.09 -69.02,39.71 -75.04,72.92 -2.08,11.46 0.91,19.54 0.91,28.75 7.86,1.83 13.33,4.32 22.34,5.5 66.83,8.75 226.59,-88.03 347.68,-67.87 156.77,26.1 117.83,195.31 50.23,284.84 -22.11,29.28 -71.46,83.6 -101.91,109.05l-28.7 26.97c-13.03,10.89 -40.13,35.9 -51.2,48.42 -25.81,29.22 -20.21,30.26 -55.94,58.34l-201.21 166.5c-10.86,8.85 -20.55,17.41 -31.26,26.04l-1.8 137.71c24.38,0 32.16,-15.07 43.41,-24.48l160.38 -131.15c17.69,-14.44 36.31,-28.19 52.69,-44.01l21.93 -19.08c2.76,-2.3 4.07,-4.15 6.65,-6.54l29.79 -25.88c3.58,-2.76 4.47,-4.28 7.59,-7.06l30.01 -25.66c5.69,-5.01 8.23,-8.31 14.51,-13.32l27.98 -26.23c10.01,-8.83 18.98,-18.03 27.26,-28.41 7.13,-8.94 19.2,-19.35 27.71,-27.96 3.18,-3.2 3.39,-3.95 5.98,-7.2l151.5 -166.42c38.8,-43.55 83.91,-114.13 115.37,-161.51 13.82,-20.81 48.61,-78.56 62.02,-104.99l27.31 -56.2c2.92,-6.53 5.32,-12.48 8.17,-19.66 34.43,-86.58 38.66,-109.67 51.3,-197.75 7.41,-51.66 -0.29,-127.52 -12.57,-176.65 -11.67,-46.69 -32.06,-96.47 -57.42,-135.97 -12.57,-19.58 -32.18,-47.03 -47.71,-63.63 -13.55,-14.48 -23.04,-27.07 -41.59,-41.91 -2.85,-2.28 -4.03,-4 -6.76,-6.43 -3.08,-2.75 -4.76,-3.66 -8.05,-6.6 -51.1,-45.56 -134.81,-84.67 -202.96,-101.76 -99.34,-24.91 -189.29,-16.96 -284.69,17.69l-73.67 37.68c-13.4,8.77 -36.12,24.69 -48.12,35.38l-43.21 40.3c-6.32,6.32 -22.73,22.29 -31.11,24.54z"/>
   <path class="fil1" d="M1296.31 1652.25l1.8 -137.71 -44 -36.42c-7.69,-6.24 -14.47,-12.28 -22.22,-18.8l-120.03 -102.65c-4.44,-3.93 -5.59,-5.78 -10.75,-9.76 -10.45,-8.08 -32.2,-30.01 -42.75,-39.29 -4.4,-3.88 -6.58,-5.09 -10.98,-9.53l-41.04 -39.53c-4.02,-4.18 -5.18,-6.77 -9.47,-11.04 -10.91,-10.86 -29.59,-30.99 -37.02,-45.03 25.41,0 119.5,-16.85 146.52,-23.42 41.41,-10.08 67.42,-18.06 106.3,-34.34 7.42,-3.11 13.21,-5.65 20.17,-9.14 39.77,-20 86.17,-47.66 119.29,-78.48l15.35 -13.95c3.27,-3.24 3.88,-3.35 7.19,-6l22.87 -21.08c11.68,-10.16 6.19,-6.4 13.9,-13.94 13.8,-13.49 27.03,-35.93 27.59,-57.48 0.4,-15.65 0.33,-13.4 -14.78,-13.26 -29.81,0.29 -83.63,18.42 -114.83,28.8 -57.84,19.23 -112.98,37.72 -178.36,48.71 -105,17.64 -196.39,6.58 -286.45,-38.38 -31.56,-15.75 -50.75,-29.86 -77.5,-49.96 -3.24,-2.44 -5.45,-3.86 -8.29,-6.36l-71.78 -71.79c-15.16,-17.33 -34.7,-45.85 -46.83,-65.97 -7.37,-12.21 -13.84,-24.1 -20.24,-36.9 -47.08,-94.16 -77.08,-218.07 -51.58,-325.54 3.6,-15.17 7.69,-30.45 13.06,-44.07 21.06,-53.38 47.9,-99.1 88.67,-139.87 68.65,-68.65 164.46,-107.41 261.9,-107.29 63.68,0.08 105.62,8.28 162.62,36.62 14.8,7.37 37.88,21.84 50.93,32.57 15.21,12.49 39.9,32.67 51.62,48.01l13.56 15.74c33.89,37.94 57.62,86.88 84.3,129.59 3.97,6.35 7.53,11.84 13.47,15.82l-0.49 -5.86 1.98 -213.89c-12.93,-3.42 -43.44,-43.49 -55.48,-54.41l-14.83 -13.01c-5.27,-3.99 -10.39,-7.84 -15.92,-11.92 -11.05,-8.15 -21.66,-14.51 -33.33,-22.33 -100.38,-67.32 -240.51,-92.97 -357.16,-65.92 -75.94,17.61 -146.6,48.56 -207,97.72 -5.44,4.43 -10.08,8.88 -15.11,12.73 -22.8,17.46 -63.06,63.15 -79.42,87.6 -7.78,11.64 -14.52,21.92 -21.75,33.92 -14.19,23.57 -25.15,47.54 -35.92,75.41 -23.35,60.42 -31.34,121.89 -31.38,189.84 -0.05,87.2 28.83,188.83 64.48,268.07 26.15,58.11 44.77,91.19 76.62,144.6 13.59,22.78 49.32,77.6 65.87,99.67l47.52 63.83c9.37,12.56 66.93,83.97 81.38,98.81l19.75 22.73c5.29,5.21 7.86,9.28 13.21,14.62l295.25 286.37 97.35 82.84c20.32,18.89 69.33,57.53 91.2,62.63 2.13,-1.78 0.71,0.3 0.97,-2.93z"/>
   <path class="fil0" d="M1646.94 2093.21c-19.85,0 -31.58,-11.32 -39.58,-23.41 -31.89,-48.26 -8.34,-121.62 33.72,-121.62 23.66,0 33.9,0.34 51.65,20.14 33.4,37.27 11.61,124.89 -45.79,124.89zm354.53 115.74c0,-9.16 -35.23,-181.13 -38.38,-194.56 -6.85,-29.24 -8.7,-39.84 -45.12,-39.84 -8.34,0 -12.27,7.39 -17.8,14.43 -4.62,5.87 -8.71,12.91 -12.7,19.53l-64.73 128.65 -39.55 0c0,-25.76 -1.47,-46.3 -1.47,-71.78l0 -147.97c0,-38.14 7.61,-45.41 -42.48,-45.41 -7.2,0 -14.33,1.33 -19.98,3.46 -8.1,3.04 -9.32,3.6 -9.32,14.12 -49.01,-25.93 -114.94,-13.57 -152.72,28.94 -67.61,76.06 -35.7,245.01 92.65,245.01 33.52,0 48.12,-14.01 57.14,-16.11l0 54.2c12.12,0 18.36,1.47 30.76,1.47 23.07,0 110.19,3.84 124.18,-6.21 9.02,-6.48 14.12,-14.11 20.03,-23.92l31.59 -59.24c0.16,6.94 7.6,35.3 9.64,44.57l18.09 90.33c3.04,15.13 6.29,30.96 8.7,45.5l16.42 91.99c5.11,24.87 12.89,66.03 42.38,66.03 22.29,0 28.32,-12.27 32.83,-30.17 4.32,-17.19 7.08,-36.88 9.57,-54.88 10.12,-73.03 33.21,-288.52 45.5,-341.27 1.06,1.53 0.07,-0.49 1.57,2.83l6.64 24.12c14.39,57.2 23.32,156.85 34.88,215.63 3.48,17.69 13.74,38.34 30.35,41.57 34.94,6.79 49.57,-47.49 62.84,-77.54 3.9,-8.82 17.61,-44.14 23.4,-48.39 3.37,14.45 41.23,110.69 50.72,139.74 5.63,17.22 18.16,28.74 35.72,28.74 28.87,0 47.4,-45.62 58.09,-67.9l20.55 -42.45c3.97,-7.1 7.64,-13.59 11.89,-20.34 4.2,-6.68 9.11,-12.21 13.49,-18.74l124.55 0.03c19.34,0.26 14.62,7.85 14.62,-63.03l-80.57 -2.93c-13.35,-0.72 -29.05,-1.06 -41.64,0.85 -31.97,4.84 -54.39,-14.6 -83.4,42.59 -5.03,9.93 -9.4,18.83 -14.13,28.36 -2.79,5.63 -10.95,23.12 -17.59,24.89 -1.16,-4.33 -3.21,-6 -5.26,-10.85l-13.62 -34.73c-8.33,-24.94 -23.99,-75.25 -32.58,-96.33 -4.28,-10.5 -16.86,-33.89 -30.58,-33.89 -41.43,0 -37.24,18.9 -56.14,56.67 -2.72,5.43 -4.61,9.17 -7.35,14.62 -2.63,5.21 -12.33,25.42 -12.69,29.8l-2.93 0c-0.15,-6.55 -3.3,-17.24 -4.76,-24.54l-14.16 -75.21c-8.85,-44.35 -35.32,-228.84 -43.48,-252.45 -16.4,-47.41 -55.82,-32.32 -65.26,-1.07 -4.27,14.13 -8.14,39.28 -8.59,57.34 -0.43,17.55 -11.98,92.56 -14.91,116.93 -4.59,38.17 -10.05,78.34 -14.51,117.34 -2.18,19.11 -4.89,38.37 -8.02,57.91 -1.26,7.83 -6.34,49.14 -12.37,53.56z"/>
   <path class="fil2" d="M209.77 1895.44c-2.14,-9.19 -3.21,-20.29 -4.65,-30.52l-23.61 -159.5c-4.77,-28.72 -4.04,-42.92 -34.73,-42.92 -14.6,0 -51.39,117.04 -60.69,141.49 -2.56,6.75 -6.69,14.78 -8.17,21.13l-83.5 1.46 -1.47 63c10.23,0 14.3,1.46 24.9,1.46 19.94,0 61.38,1.15 79.14,-1.44 7.02,-1.03 8.01,-2.28 12.09,-6.95 15.23,-17.43 23.44,-54.39 31.36,-74.12l3.41 -6.85c13.45,57.74 28.79,203.15 38.7,267.48 2.35,15.22 4.76,29.11 8.46,42.81 1.6,5.9 3.98,12.89 7.05,17.86 10.22,16.57 28.82,9.89 34.94,-0.2 9.6,-15.81 15.19,-110.83 18.64,-135.19 3.61,-25.54 6.61,-83.22 9.63,-111.96 3.47,-33 6.7,-84.13 10.65,-112.41l6.71 -54.83c7.19,11.34 19.48,135.26 21.13,147.34 4.64,33.84 6.44,101.84 21.01,125.49 1.47,2.38 2.43,3.99 4.45,5.81 5.36,4.81 7.72,4.11 13.47,4.11 18.62,0 28.56,-41.17 33.51,-57.32l19.34 -61.23c1.79,-5.4 0.24,-4.48 4.29,-7.44 0.15,6.83 32.43,122.31 36.03,136.83 2.45,9.84 2.6,14.25 8.3,21.01 38.33,45.43 64.36,-68.55 76.41,-100.09 2.7,-7.09 5.33,-13.19 8.19,-19.65 2.69,-6.12 8.74,-13.44 10.24,-19.06l101.09 0c0,-10.28 1.54,-14.29 1.48,-24.88 -0.05,-8.81 -0.02,-17.62 0.02,-26.43 0.04,-10.21 -1.58,-14.23 -1.52,-24.85l-1.45 -133.33c36.67,0 58.6,7.63 58.6,-35.16 0,-14.19 -4.1,-38.09 -17.58,-38.09l-41.02 0 0 -83.51c0,-23.28 -71.78,-15 -71.78,0l0 83.51c-38.37,0 -48.42,-4.94 -52.82,11.64 -5.64,21.23 -1.64,60.14 10.33,60.14l42.49 0 0 145.04c-6.27,0 -41.63,1.14 -46.04,2.3 -31.15,8.24 -37.48,82.59 -53.58,94.39l-25.5 -93.18c-5.23,-20.91 -15.07,-82.62 -36.03,-82.62 -27.31,0 -27.31,19.12 -35.85,44.73l-14.81 42.32c-3.95,10.18 -2.53,10.12 -5.01,14.03 -11.64,-49.96 -30.22,-238.5 -38.74,-299.68 -3.48,-25.04 -5.96,-82.68 -30.12,-82.68 -26.48,0 -28.07,44.45 -30.37,61.92 -0.71,5.43 -0.05,10.33 -0.47,15.64l-12.05 128.59c-2.96,23.22 -4.87,64.35 -7.76,84.54l-16.74 140.02z"/>
   <path class="fil2" d="M718.13 1672.76c0,56.36 -1.94,152.62 34.76,190.84 17.56,18.29 31.72,21.58 57.53,21.58 23.05,0 56.44,-12.39 71.79,-20.51 0,9.76 -1.77,14.77 4.56,18.88 10.78,7 43.18,5.5 56.13,0.79 7.52,-2.74 11.09,-5.64 11.09,-15.27l0 -251.98c0,-2.27 -2.95,-6.32 -4.21,-7.5 -2.06,-1.92 -4.92,-3.08 -7.43,-4.29 -15.84,-7.65 -46.3,-4.45 -57.59,4.09 -3.87,2.92 -4.03,4.14 -4.14,10.5l0.12 173c-11.93,3.18 -75.29,53.98 -90.48,-16.46 -4.13,-19.15 -4.63,-44.34 -4.75,-67.06l1.43 -51.31c0.32,-10.95 6.2,-41.14 -2.39,-48.8 -13.83,-12.33 -63.04,-12.85 -64.98,10.73l-1.44 52.77z"/>
   <path class="fil3" d="M930.55 2017.03c0,34.23 11.12,65.59 25.18,86.17 45.68,66.87 139.51,68.61 191.3,20.43 27.48,-25.56 35.71,-34.19 8.79,-59.38 -9.15,-8.56 -19.31,-13.52 -33.35,-13.52 -4.83,0 -14.63,14.28 -31.61,25.52 -41.75,27.62 -94.38,-1.6 -94.38,-57.75 0,-37.45 22.94,-71.79 60.07,-71.79 14.95,0 27.32,0.8 37.76,10.58 11.15,10.44 13.06,31.36 54.06,9.46 6.16,-3.29 20.98,-13.86 20.98,-21.5 0,-15.32 -22.56,-39.65 -38.07,-49.83 -83.24,-54.68 -200.73,0.62 -200.73,121.61z"/>
   <path class="fil0" d="M1309.99 1913.02c0,52.24 8.4,43.95 54.21,43.95l0 188.98c0,33.04 74.71,22.77 74.71,5.86l0 -108.41c0,-30.53 -1.46,-55.97 -1.46,-86.43 37.26,0 47.08,5.2 54.72,-12.67 8.13,-19.05 3.01,-60.58 -15.17,-60.58l-39.55 0 0 -82.04c0,-20.64 -47.99,-14.99 -59.6,-11.25 -9.34,3 -12.31,3.93 -12.29,15.54 0.01,18.09 0.1,36.2 0.1,54.31 0,31.64 3.97,25 -29.3,24.9 -12.12,-0.03 -26.37,-5.34 -26.37,27.84z"/>
   <path class="fil0" d="M1616.18 417.25c0,45.64 18.73,82.19 55.63,101.12 47.68,24.47 121.34,6.48 144.48,-51.9 13.8,-34.82 12.59,-74.26 -9.21,-103.88 -8.02,-10.89 -15.09,-18.67 -26.51,-26.23 -32.74,-21.69 -64.28,-26.67 -102.26,-10.8 -34.3,14.33 -62.13,49.91 -62.13,91.69z"/>
   <path class="fil2" d="M817.75 714.64c0,25.78 -0.08,30.2 10.02,54.44 8.53,20.49 29.99,42.16 50.03,51.05 32.17,14.28 72.5,10.74 103.06,-6.84 5.5,-3.17 9.45,-7.12 13.98,-10.92 14.73,-12.36 30.94,-40.56 30.94,-67.22 0,-28.33 1.16,-30.38 -9.62,-57.77 -20.06,-50.98 -77.2,-71.59 -130.43,-51.51 -36.65,13.83 -67.98,46.5 -67.98,88.77z"/>
   <path class="fil3" d="M1241.14 2167.93c14.23,0 39.55,-5.49 39.55,-19.05 0,-23.95 1.13,-129.95 -0.62,-141.48 -2.2,-14.52 -0.84,-62.05 -0.84,-82.66l-0.3 -24.62c-1.38,-6.7 -1.61,-7.34 -12.02,-9.95 -16.26,-4.08 -49.87,-1.97 -56.27,7 -1.71,2.39 -3.24,34.07 -3.21,40.74 0.15,29.78 -0.03,59.59 0.01,89.38 0.02,15.67 -1.47,26.26 -1.46,42.48 0,13.05 -2.22,79.12 1.95,85.95 4.85,7.93 20.86,12.21 33.21,12.21z"/>
   <path class="fil3" d="M1239.67 1877.86c14.43,0 24.31,-1.52 34.14,-11.28 15.28,-15.18 13.81,-41.82 -0.76,-57.27 -21.75,-23.07 -68.09,-12.35 -70.83,26.55 -1.62,22.83 18.47,42 37.45,42z"/>
  </g>
 </g>
</svg>
